<?xml version="1.0" encoding="utf-8" standalone="no"?>
<!DOCTYPE svg PUBLIC "-//W3C//DTD SVG 1.1//EN"
  "http://www.w3.org/Graphics/SVG/1.1/DTD/svg11.dtd">
<svg xmlns:xlink="http://www.w3.org/1999/xlink" width="432pt" height="288pt" viewBox="0 0 432 288" xmlns="http://www.w3.org/2000/svg" version="1.1">
 <metadata>
  <rdf:RDF xmlns:dc="http://purl.org/dc/elements/1.1/" xmlns:cc="http://creativecommons.org/ns#" xmlns:rdf="http://www.w3.org/1999/02/22-rdf-syntax-ns#">
   <cc:Work>
    <dc:type rdf:resource="http://purl.org/dc/dcmitype/StillImage"/>
    <dc:date>2025-07-12T13:09:27.059320</dc:date>
    <dc:format>image/svg+xml</dc:format>
    <dc:creator>
     <cc:Agent>
      <dc:title>Matplotlib v3.10.3, https://matplotlib.org/</dc:title>
     </cc:Agent>
    </dc:creator>
   </cc:Work>
  </rdf:RDF>
 </metadata>
 <defs>
  <style type="text/css">*{stroke-linejoin: round; stroke-linecap: butt}</style>
 </defs>
 <g id="figure_1">
  <g id="patch_1">
   <path d="M 0 288 
L 432 288 
L 432 0 
L 0 0 
z
" style="fill: #ffffff"/>
  </g>
  <g id="axes_1">
   <g id="patch_2">
    <path d="M 64.8 244.8 
L 410.4 244.8 
L 410.4 14.4 
L 64.8 14.4 
z
" style="fill: #ffffff"/>
   </g>
   <g id="FillBetweenPolyCollection_1">
    <defs>
     <path id="ma3c378caa9" d="M 394.690909 -255.033221 
L 394.690909 -255.033221 
L 393.104132 -255.012642 
L 391.517355 -254.980151 
L 389.930579 -254.930163 
L 388.343802 -254.855223 
L 386.757025 -254.745755 
L 385.170248 -254.589951 
L 383.583471 -254.373877 
L 381.996694 -254.081877 
L 380.409917 -253.697404 
L 378.82314 -253.204137 
L 377.236364 -252.587469 
L 375.649587 -251.836306 
L 374.06281 -250.944754 
L 372.476033 -249.913658 
L 370.889256 -248.751723 
L 369.302479 -247.475902 
L 367.715702 -246.110904 
L 366.128926 -244.687892 
L 364.542149 -243.242412 
L 362.955372 -241.811711 
L 361.368595 -240.431927 
L 359.781818 -239.135368 
L 358.195041 -237.948358 
L 356.608264 -236.889996 
L 355.021488 -235.972105 
L 353.434711 -235.200908 
L 351.847934 -234.581149 
L 350.261157 -234.123224 
L 348.67438 -233.853267 
L 347.087603 -233.824784 
L 345.500826 -234.126609 
L 343.91405 -234.879261 
L 342.327273 -236.212367 
L 340.740496 -238.22204 
L 339.153719 -240.918925 
L 337.566942 -244.189403 
L 335.980165 -247.794688 
L 334.393388 -251.416303 
L 332.806612 -254.735024 
L 331.219835 -257.510769 
L 329.633058 -259.630181 
L 328.046281 -261.107741 
L 326.459504 -262.04838 
L 324.872727 -262.595182 
L 323.28595 -262.885407 
L 321.699174 -263.026094 
L 320.112397 -263.088368 
L 318.52562 -263.113534 
L 316.938843 -263.122821 
L 315.352066 -263.125951 
L 313.765289 -263.126913 
L 312.178512 -263.127183 
L 310.591736 -263.127252 
L 309.004959 -263.127269 
L 307.418182 -263.127272 
L 305.831405 -263.127273 
L 304.244628 -263.127273 
L 302.657851 -263.127273 
L 301.071074 -263.127273 
L 299.484298 -263.127273 
L 297.897521 -263.127273 
L 296.310744 -263.127273 
L 294.723967 -263.127273 
L 293.13719 -263.127273 
L 291.550413 -263.127273 
L 289.963636 -263.127273 
L 288.37686 -263.127273 
L 286.790083 -263.127273 
L 285.203306 -263.127273 
L 283.616529 -263.127273 
L 282.029752 -263.127273 
L 280.442975 -263.127273 
L 278.856198 -263.127273 
L 277.269421 -263.127273 
L 275.682645 -263.127273 
L 274.095868 -263.127273 
L 272.509091 -263.127273 
L 270.922314 -263.127273 
L 269.335537 -263.127273 
L 267.74876 -263.127273 
L 266.161983 -263.127273 
L 264.575207 -263.127273 
L 262.98843 -263.127273 
L 261.401653 -263.127273 
L 259.814876 -263.127273 
L 258.228099 -263.127273 
L 256.641322 -263.127273 
L 255.054545 -263.127273 
L 253.467769 -263.127273 
L 251.880992 -263.127273 
L 250.294215 -263.127273 
L 248.707438 -263.127273 
L 247.120661 -263.127273 
L 245.533884 -263.127273 
L 243.947107 -263.127273 
L 242.360331 -263.127273 
L 240.773554 -263.127273 
L 239.186777 -263.127273 
L 237.6 -263.127273 
L 236.013223 -263.127273 
L 234.426446 -263.127273 
L 232.839669 -263.127273 
L 231.252893 -263.127273 
L 229.666116 -263.127273 
L 228.079339 -263.127273 
L 226.492562 -263.127273 
L 224.905785 -263.127273 
L 223.319008 -263.127273 
L 221.732231 -263.127273 
L 220.145455 -263.127273 
L 218.558678 -263.127273 
L 216.971901 -263.127273 
L 215.385124 -263.127273 
L 213.798347 -263.127273 
L 212.21157 -263.127273 
L 210.624793 -263.127273 
L 209.038017 -263.127273 
L 207.45124 -263.127273 
L 205.864463 -263.127273 
L 204.277686 -263.127273 
L 202.690909 -263.127273 
L 201.104132 -263.127273 
L 199.517355 -263.127273 
L 197.930579 -263.127273 
L 196.343802 -263.127273 
L 194.757025 -263.127273 
L 193.170248 -263.127273 
L 191.583471 -263.127273 
L 189.996694 -263.127273 
L 188.409917 -263.127273 
L 186.82314 -263.127273 
L 185.236364 -263.127273 
L 183.649587 -263.127273 
L 182.06281 -263.127273 
L 180.476033 -263.127273 
L 178.889256 -263.127273 
L 177.302479 -263.127273 
L 175.715702 -263.127273 
L 174.128926 -263.127273 
L 172.542149 -263.127273 
L 170.955372 -263.127273 
L 169.368595 -263.127273 
L 167.781818 -263.127273 
L 166.195041 -263.127273 
L 164.608264 -263.127273 
L 163.021488 -263.127273 
L 161.434711 -263.127273 
L 159.847934 -263.127273 
L 158.261157 -263.127273 
L 156.67438 -263.127273 
L 155.087603 -263.127273 
L 153.500826 -263.127273 
L 151.91405 -263.127273 
L 150.327273 -263.127273 
L 148.740496 -263.127273 
L 147.153719 -263.127273 
L 145.566942 -263.127273 
L 143.980165 -263.127273 
L 142.393388 -263.127273 
L 140.806612 -263.127273 
L 139.219835 -263.127273 
L 137.633058 -263.127273 
L 136.046281 -263.127273 
L 134.459504 -263.127273 
L 132.872727 -263.127273 
L 131.28595 -263.127273 
L 129.699174 -263.127273 
L 128.112397 -263.127273 
L 126.52562 -263.127273 
L 124.938843 -263.127273 
L 123.352066 -263.127273 
L 121.765289 -263.127273 
L 120.178512 -263.127271 
L 118.591736 -263.127255 
L 117.004959 -263.127084 
L 115.418182 -263.125608 
L 113.831405 -263.115249 
L 112.244628 -263.056215 
L 110.657851 -262.782768 
L 109.071074 -261.752894 
L 107.484298 -258.600648 
L 105.897521 -250.756912 
L 104.310744 -234.88539 
L 102.723967 -208.776799 
L 101.13719 -173.85499 
L 99.550413 -135.872853 
L 97.963636 -102.283186 
L 96.37686 -78.128451 
L 94.790083 -64.004885 
L 93.203306 -57.291422 
L 91.616529 -54.696383 
L 90.029752 -53.880928 
L 88.442975 -53.672727 
L 86.856198 -53.682068 
L 85.269421 -58.874744 
L 83.682645 -107.424831 
L 82.095868 -158.269124 
L 80.509091 -164.274971 
L 80.509091 -164.274971 
L 80.509091 -164.274971 
L 82.095868 -158.269124 
L 83.682645 -107.424831 
L 85.269421 -58.874744 
L 86.856198 -53.682068 
L 88.442975 -53.672727 
L 90.029752 -53.880928 
L 91.616529 -54.696383 
L 93.203306 -57.291422 
L 94.790083 -64.004885 
L 96.37686 -78.128451 
L 97.963636 -102.283186 
L 99.550413 -135.872853 
L 101.13719 -173.85499 
L 102.723967 -208.776799 
L 104.310744 -234.88539 
L 105.897521 -250.756912 
L 107.484298 -258.600648 
L 109.071074 -261.752894 
L 110.657851 -262.782768 
L 112.244628 -263.056215 
L 113.831405 -263.115249 
L 115.418182 -263.125608 
L 117.004959 -263.127084 
L 118.591736 -263.127255 
L 120.178512 -263.127271 
L 121.765289 -263.127273 
L 123.352066 -263.127273 
L 124.938843 -263.127273 
L 126.52562 -263.127273 
L 128.112397 -263.127273 
L 129.699174 -263.127273 
L 131.28595 -263.127273 
L 132.872727 -263.127273 
L 134.459504 -263.127273 
L 136.046281 -263.127273 
L 137.633058 -263.127273 
L 139.219835 -263.127273 
L 140.806612 -263.127273 
L 142.393388 -263.127273 
L 143.980165 -263.127273 
L 145.566942 -263.127273 
L 147.153719 -263.127273 
L 148.740496 -263.127273 
L 150.327273 -263.127273 
L 151.91405 -263.127273 
L 153.500826 -263.127273 
L 155.087603 -263.127273 
L 156.67438 -263.127273 
L 158.261157 -263.127273 
L 159.847934 -263.127273 
L 161.434711 -263.127273 
L 163.021488 -263.127273 
L 164.608264 -263.127273 
L 166.195041 -263.127273 
L 167.781818 -263.127273 
L 169.368595 -263.127273 
L 170.955372 -263.127273 
L 172.542149 -263.127273 
L 174.128926 -263.127273 
L 175.715702 -263.127273 
L 177.302479 -263.127273 
L 178.889256 -263.127273 
L 180.476033 -263.127273 
L 182.06281 -263.127273 
L 183.649587 -263.127273 
L 185.236364 -263.127273 
L 186.82314 -263.127273 
L 188.409917 -263.127273 
L 189.996694 -263.127273 
L 191.583471 -263.127273 
L 193.170248 -263.127273 
L 194.757025 -263.127273 
L 196.343802 -263.127273 
L 197.930579 -263.127273 
L 199.517355 -263.127273 
L 201.104132 -263.127273 
L 202.690909 -263.127273 
L 204.277686 -263.127273 
L 205.864463 -263.127273 
L 207.45124 -263.127273 
L 209.038017 -263.127273 
L 210.624793 -263.127273 
L 212.21157 -263.127273 
L 213.798347 -263.127273 
L 215.385124 -263.127273 
L 216.971901 -263.127273 
L 218.558678 -263.127273 
L 220.145455 -263.127273 
L 221.732231 -263.127273 
L 223.319008 -263.127273 
L 224.905785 -263.127273 
L 226.492562 -263.127273 
L 228.079339 -263.127273 
L 229.666116 -263.127273 
L 231.252893 -263.127273 
L 232.839669 -263.127273 
L 234.426446 -263.127273 
L 236.013223 -263.127273 
L 237.6 -263.127273 
L 239.186777 -263.127273 
L 240.773554 -263.127273 
L 242.360331 -263.127273 
L 243.947107 -263.127273 
L 245.533884 -263.127273 
L 247.120661 -263.127273 
L 248.707438 -263.127273 
L 250.294215 -263.127273 
L 251.880992 -263.127273 
L 253.467769 -263.127273 
L 255.054545 -263.127273 
L 256.641322 -263.127273 
L 258.228099 -263.127273 
L 259.814876 -263.127273 
L 261.401653 -263.127273 
L 262.98843 -263.127273 
L 264.575207 -263.127273 
L 266.161983 -263.127273 
L 267.74876 -263.127273 
L 269.335537 -263.127273 
L 270.922314 -263.127273 
L 272.509091 -263.127273 
L 274.095868 -263.127273 
L 275.682645 -263.127273 
L 277.269421 -263.127273 
L 278.856198 -263.127273 
L 280.442975 -263.127273 
L 282.029752 -263.127273 
L 283.616529 -263.127273 
L 285.203306 -263.127273 
L 286.790083 -263.127273 
L 288.37686 -263.127273 
L 289.963636 -263.127273 
L 291.550413 -263.127273 
L 293.13719 -263.127273 
L 294.723967 -263.127273 
L 296.310744 -263.127273 
L 297.897521 -263.127273 
L 299.484298 -263.127273 
L 301.071074 -263.127273 
L 302.657851 -263.127273 
L 304.244628 -263.127273 
L 305.831405 -263.127273 
L 307.418182 -263.127272 
L 309.004959 -263.127269 
L 310.591736 -263.127252 
L 312.178512 -263.127183 
L 313.765289 -263.126913 
L 315.352066 -263.125951 
L 316.938843 -263.122821 
L 318.52562 -263.113534 
L 320.112397 -263.088368 
L 321.699174 -263.026094 
L 323.28595 -262.885407 
L 324.872727 -262.595182 
L 326.459504 -262.04838 
L 328.046281 -261.107741 
L 329.633058 -259.630181 
L 331.219835 -257.510769 
L 332.806612 -254.735024 
L 334.393388 -251.416303 
L 335.980165 -247.794688 
L 337.566942 -244.189403 
L 339.153719 -240.918925 
L 340.740496 -238.22204 
L 342.327273 -236.212367 
L 343.91405 -234.879261 
L 345.500826 -234.126609 
L 347.087603 -233.824784 
L 348.67438 -233.853267 
L 350.261157 -234.123224 
L 351.847934 -234.581149 
L 353.434711 -235.200908 
L 355.021488 -235.972105 
L 356.608264 -236.889996 
L 358.195041 -237.948358 
L 359.781818 -239.135368 
L 361.368595 -240.431927 
L 362.955372 -241.811711 
L 364.542149 -243.242412 
L 366.128926 -244.687892 
L 367.715702 -246.110904 
L 369.302479 -247.475902 
L 370.889256 -248.751723 
L 372.476033 -249.913658 
L 374.06281 -250.944754 
L 375.649587 -251.836306 
L 377.236364 -252.587469 
L 378.82314 -253.204137 
L 380.409917 -253.697404 
L 381.996694 -254.081877 
L 383.583471 -254.373877 
L 385.170248 -254.589951 
L 386.757025 -254.745755 
L 388.343802 -254.855223 
L 389.930579 -254.930163 
L 391.517355 -254.980151 
L 393.104132 -255.012642 
L 394.690909 -255.033221 
z
" style="stroke: #1f77b4; stroke-opacity: 0.2"/>
    </defs>
    <g clip-path="url(#pa0b14d1046)">
     <use xlink:href="#ma3c378caa9" x="0" y="288" style="fill: #1f77b4; fill-opacity: 0.2; stroke: #1f77b4; stroke-opacity: 0.2"/>
    </g>
   </g>
   <g id="matplotlib.axis_1">
    <g id="xtick_1">
     <g id="line2d_1">
      <defs>
       <path id="mdca9c08a9e" d="M 0 0 
L 0 3.5 
" style="stroke: #000000; stroke-width: 0.8"/>
      </defs>
      <g>
       <use xlink:href="#mdca9c08a9e" x="78.922314" y="244.8" style="stroke: #000000; stroke-width: 0.8"/>
      </g>
     </g>
     <g id="text_1">
      <!-- 0 -->
      <g transform="translate(75.741064 259.398438) scale(0.1 -0.1)">
       <defs>
        <path id="DejaVuSans-30" d="M 2034 4250 
Q 1547 4250 1301 3770 
Q 1056 3291 1056 2328 
Q 1056 1369 1301 889 
Q 1547 409 2034 409 
Q 2525 409 2770 889 
Q 3016 1369 3016 2328 
Q 3016 3291 2770 3770 
Q 2525 4250 2034 4250 
z
M 2034 4750 
Q 2819 4750 3233 4129 
Q 3647 3509 3647 2328 
Q 3647 1150 3233 529 
Q 2819 -91 2034 -91 
Q 1250 -91 836 529 
Q 422 1150 422 2328 
Q 422 3509 836 4129 
Q 1250 4750 2034 4750 
z
" transform="scale(0.015625)"/>
       </defs>
       <use xlink:href="#DejaVuSans-30"/>
      </g>
     </g>
    </g>
    <g id="xtick_2">
     <g id="line2d_2">
      <g>
       <use xlink:href="#mdca9c08a9e" x="126.002767" y="244.8" style="stroke: #000000; stroke-width: 0.8"/>
      </g>
     </g>
     <g id="text_2">
      <!-- 100 -->
      <g transform="translate(116.459017 259.398438) scale(0.1 -0.1)">
       <defs>
        <path id="DejaVuSans-31" d="M 794 531 
L 1825 531 
L 1825 4091 
L 703 3866 
L 703 4441 
L 1819 4666 
L 2450 4666 
L 2450 531 
L 3481 531 
L 3481 0 
L 794 0 
L 794 531 
z
" transform="scale(0.015625)"/>
       </defs>
       <use xlink:href="#DejaVuSans-31"/>
       <use xlink:href="#DejaVuSans-30" transform="translate(63.623047 0)"/>
       <use xlink:href="#DejaVuSans-30" transform="translate(127.246094 0)"/>
      </g>
     </g>
    </g>
    <g id="xtick_3">
     <g id="line2d_3">
      <g>
       <use xlink:href="#mdca9c08a9e" x="173.083219" y="244.8" style="stroke: #000000; stroke-width: 0.8"/>
      </g>
     </g>
     <g id="text_3">
      <!-- 200 -->
      <g transform="translate(163.539469 259.398438) scale(0.1 -0.1)">
       <defs>
        <path id="DejaVuSans-32" d="M 1228 531 
L 3431 531 
L 3431 0 
L 469 0 
L 469 531 
Q 828 903 1448 1529 
Q 2069 2156 2228 2338 
Q 2531 2678 2651 2914 
Q 2772 3150 2772 3378 
Q 2772 3750 2511 3984 
Q 2250 4219 1831 4219 
Q 1534 4219 1204 4116 
Q 875 4013 500 3803 
L 500 4441 
Q 881 4594 1212 4672 
Q 1544 4750 1819 4750 
Q 2544 4750 2975 4387 
Q 3406 4025 3406 3419 
Q 3406 3131 3298 2873 
Q 3191 2616 2906 2266 
Q 2828 2175 2409 1742 
Q 1991 1309 1228 531 
z
" transform="scale(0.015625)"/>
       </defs>
       <use xlink:href="#DejaVuSans-32"/>
       <use xlink:href="#DejaVuSans-30" transform="translate(63.623047 0)"/>
       <use xlink:href="#DejaVuSans-30" transform="translate(127.246094 0)"/>
      </g>
     </g>
    </g>
    <g id="xtick_4">
     <g id="line2d_4">
      <g>
       <use xlink:href="#mdca9c08a9e" x="220.163672" y="244.8" style="stroke: #000000; stroke-width: 0.8"/>
      </g>
     </g>
     <g id="text_4">
      <!-- 300 -->
      <g transform="translate(210.619922 259.398438) scale(0.1 -0.1)">
       <defs>
        <path id="DejaVuSans-33" d="M 2597 2516 
Q 3050 2419 3304 2112 
Q 3559 1806 3559 1356 
Q 3559 666 3084 287 
Q 2609 -91 1734 -91 
Q 1441 -91 1130 -33 
Q 819 25 488 141 
L 488 750 
Q 750 597 1062 519 
Q 1375 441 1716 441 
Q 2309 441 2620 675 
Q 2931 909 2931 1356 
Q 2931 1769 2642 2001 
Q 2353 2234 1838 2234 
L 1294 2234 
L 1294 2753 
L 1863 2753 
Q 2328 2753 2575 2939 
Q 2822 3125 2822 3475 
Q 2822 3834 2567 4026 
Q 2313 4219 1838 4219 
Q 1578 4219 1281 4162 
Q 984 4106 628 3988 
L 628 4550 
Q 988 4650 1302 4700 
Q 1616 4750 1894 4750 
Q 2613 4750 3031 4423 
Q 3450 4097 3450 3541 
Q 3450 3153 3228 2886 
Q 3006 2619 2597 2516 
z
" transform="scale(0.015625)"/>
       </defs>
       <use xlink:href="#DejaVuSans-33"/>
       <use xlink:href="#DejaVuSans-30" transform="translate(63.623047 0)"/>
       <use xlink:href="#DejaVuSans-30" transform="translate(127.246094 0)"/>
      </g>
     </g>
    </g>
    <g id="xtick_5">
     <g id="line2d_5">
      <g>
       <use xlink:href="#mdca9c08a9e" x="267.244124" y="244.8" style="stroke: #000000; stroke-width: 0.8"/>
      </g>
     </g>
     <g id="text_5">
      <!-- 400 -->
      <g transform="translate(257.700374 259.398438) scale(0.1 -0.1)">
       <defs>
        <path id="DejaVuSans-34" d="M 2419 4116 
L 825 1625 
L 2419 1625 
L 2419 4116 
z
M 2253 4666 
L 3047 4666 
L 3047 1625 
L 3713 1625 
L 3713 1100 
L 3047 1100 
L 3047 0 
L 2419 0 
L 2419 1100 
L 313 1100 
L 313 1709 
L 2253 4666 
z
" transform="scale(0.015625)"/>
       </defs>
       <use xlink:href="#DejaVuSans-34"/>
       <use xlink:href="#DejaVuSans-30" transform="translate(63.623047 0)"/>
       <use xlink:href="#DejaVuSans-30" transform="translate(127.246094 0)"/>
      </g>
     </g>
    </g>
    <g id="xtick_6">
     <g id="line2d_6">
      <g>
       <use xlink:href="#mdca9c08a9e" x="314.324577" y="244.8" style="stroke: #000000; stroke-width: 0.8"/>
      </g>
     </g>
     <g id="text_6">
      <!-- 500 -->
      <g transform="translate(304.780827 259.398438) scale(0.1 -0.1)">
       <defs>
        <path id="DejaVuSans-35" d="M 691 4666 
L 3169 4666 
L 3169 4134 
L 1269 4134 
L 1269 2991 
Q 1406 3038 1543 3061 
Q 1681 3084 1819 3084 
Q 2600 3084 3056 2656 
Q 3513 2228 3513 1497 
Q 3513 744 3044 326 
Q 2575 -91 1722 -91 
Q 1428 -91 1123 -41 
Q 819 9 494 109 
L 494 744 
Q 775 591 1075 516 
Q 1375 441 1709 441 
Q 2250 441 2565 725 
Q 2881 1009 2881 1497 
Q 2881 1984 2565 2268 
Q 2250 2553 1709 2553 
Q 1456 2553 1204 2497 
Q 953 2441 691 2322 
L 691 4666 
z
" transform="scale(0.015625)"/>
       </defs>
       <use xlink:href="#DejaVuSans-35"/>
       <use xlink:href="#DejaVuSans-30" transform="translate(63.623047 0)"/>
       <use xlink:href="#DejaVuSans-30" transform="translate(127.246094 0)"/>
      </g>
     </g>
    </g>
    <g id="xtick_7">
     <g id="line2d_7">
      <g>
       <use xlink:href="#mdca9c08a9e" x="361.405029" y="244.8" style="stroke: #000000; stroke-width: 0.8"/>
      </g>
     </g>
     <g id="text_7">
      <!-- 600 -->
      <g transform="translate(351.861279 259.398438) scale(0.1 -0.1)">
       <defs>
        <path id="DejaVuSans-36" d="M 2113 2584 
Q 1688 2584 1439 2293 
Q 1191 2003 1191 1497 
Q 1191 994 1439 701 
Q 1688 409 2113 409 
Q 2538 409 2786 701 
Q 3034 994 3034 1497 
Q 3034 2003 2786 2293 
Q 2538 2584 2113 2584 
z
M 3366 4563 
L 3366 3988 
Q 3128 4100 2886 4159 
Q 2644 4219 2406 4219 
Q 1781 4219 1451 3797 
Q 1122 3375 1075 2522 
Q 1259 2794 1537 2939 
Q 1816 3084 2150 3084 
Q 2853 3084 3261 2657 
Q 3669 2231 3669 1497 
Q 3669 778 3244 343 
Q 2819 -91 2113 -91 
Q 1303 -91 875 529 
Q 447 1150 447 2328 
Q 447 3434 972 4092 
Q 1497 4750 2381 4750 
Q 2619 4750 2861 4703 
Q 3103 4656 3366 4563 
z
" transform="scale(0.015625)"/>
       </defs>
       <use xlink:href="#DejaVuSans-36"/>
       <use xlink:href="#DejaVuSans-30" transform="translate(63.623047 0)"/>
       <use xlink:href="#DejaVuSans-30" transform="translate(127.246094 0)"/>
      </g>
     </g>
    </g>
    <g id="xtick_8">
     <g id="line2d_8">
      <g>
       <use xlink:href="#mdca9c08a9e" x="408.485482" y="244.8" style="stroke: #000000; stroke-width: 0.8"/>
      </g>
     </g>
     <g id="text_8">
      <!-- 700 -->
      <g transform="translate(398.941732 259.398438) scale(0.1 -0.1)">
       <defs>
        <path id="DejaVuSans-37" d="M 525 4666 
L 3525 4666 
L 3525 4397 
L 1831 0 
L 1172 0 
L 2766 4134 
L 525 4134 
L 525 4666 
z
" transform="scale(0.015625)"/>
       </defs>
       <use xlink:href="#DejaVuSans-37"/>
       <use xlink:href="#DejaVuSans-30" transform="translate(63.623047 0)"/>
       <use xlink:href="#DejaVuSans-30" transform="translate(127.246094 0)"/>
      </g>
     </g>
    </g>
    <g id="text_9">
     <!-- z ($\AA$) -->
     <g transform="translate(220.275 278.408594) scale(0.15 -0.15)">
      <defs>
       <path id="DejaVuSans-7a" d="M 353 3500 
L 3084 3500 
L 3084 2975 
L 922 459 
L 3084 459 
L 3084 0 
L 275 0 
L 275 525 
L 2438 3041 
L 353 3041 
L 353 3500 
z
" transform="scale(0.015625)"/>
       <path id="DejaVuSans-20" transform="scale(0.015625)"/>
       <path id="DejaVuSans-28" d="M 1984 4856 
Q 1566 4138 1362 3434 
Q 1159 2731 1159 2009 
Q 1159 1288 1364 580 
Q 1569 -128 1984 -844 
L 1484 -844 
Q 1016 -109 783 600 
Q 550 1309 550 2009 
Q 550 2706 781 3412 
Q 1013 4119 1484 4856 
L 1984 4856 
z
" transform="scale(0.015625)"/>
       <path id="DejaVuSans-Oblique-c5" d="M 3188 5081 
Q 3188 5278 3048 5417 
Q 2909 5556 2713 5556 
Q 2513 5556 2377 5420 
Q 2241 5284 2241 5081 
Q 2241 4884 2377 4746 
Q 2513 4609 2713 4609 
Q 2909 4609 3048 4746 
Q 3188 4884 3188 5081 
z
M 2203 4397 
Q 2034 4513 1945 4689 
Q 1856 4866 1856 5081 
Q 1856 5438 2106 5689 
Q 2356 5941 2713 5941 
Q 3069 5941 3320 5689 
Q 3572 5438 3572 5081 
Q 3572 4834 3458 4643 
Q 3344 4453 3128 4341 
L 3938 0 
L 3278 0 
L 3084 1197 
L 984 1197 
L 325 0 
L -341 0 
L 2203 4397 
z
M 2584 4044 
L 1275 1722 
L 2988 1722 
L 2584 4044 
z
" transform="scale(0.015625)"/>
       <path id="DejaVuSans-29" d="M 513 4856 
L 1013 4856 
Q 1481 4119 1714 3412 
Q 1947 2706 1947 2009 
Q 1947 1309 1714 600 
Q 1481 -109 1013 -844 
L 513 -844 
Q 928 -128 1133 580 
Q 1338 1288 1338 2009 
Q 1338 2731 1133 3434 
Q 928 4138 513 4856 
z
" transform="scale(0.015625)"/>
      </defs>
      <use xlink:href="#DejaVuSans-7a" transform="translate(0 0.171875)"/>
      <use xlink:href="#DejaVuSans-20" transform="translate(52.490234 0.171875)"/>
      <use xlink:href="#DejaVuSans-28" transform="translate(84.277344 0.171875)"/>
      <use xlink:href="#DejaVuSans-Oblique-c5" transform="translate(123.291016 0.171875)"/>
      <use xlink:href="#DejaVuSans-29" transform="translate(191.699219 0.171875)"/>
     </g>
    </g>
   </g>
   <g id="matplotlib.axis_2">
    <g id="ytick_1">
     <g id="line2d_9">
      <defs>
       <path id="maf3d3070bb" d="M 0 0 
L -3.5 0 
" style="stroke: #000000; stroke-width: 0.8"/>
      </defs>
      <g>
       <use xlink:href="#maf3d3070bb" x="64.8" y="218.414878" style="stroke: #000000; stroke-width: 0.8"/>
      </g>
     </g>
     <g id="text_10">
      <!-- −2 -->
      <g transform="translate(43.057812 222.214096) scale(0.1 -0.1)">
       <defs>
        <path id="DejaVuSans-2212" d="M 678 2272 
L 4684 2272 
L 4684 1741 
L 678 1741 
L 678 2272 
z
" transform="scale(0.015625)"/>
       </defs>
       <use xlink:href="#DejaVuSans-2212"/>
       <use xlink:href="#DejaVuSans-32" transform="translate(83.789062 0)"/>
      </g>
     </g>
    </g>
    <g id="ytick_2">
     <g id="line2d_10">
      <g>
       <use xlink:href="#maf3d3070bb" x="64.8" y="171.851083" style="stroke: #000000; stroke-width: 0.8"/>
      </g>
     </g>
     <g id="text_11">
      <!-- 0 -->
      <g transform="translate(51.4375 175.650301) scale(0.1 -0.1)">
       <use xlink:href="#DejaVuSans-30"/>
      </g>
     </g>
    </g>
    <g id="ytick_3">
     <g id="line2d_11">
      <g>
       <use xlink:href="#maf3d3070bb" x="64.8" y="125.287288" style="stroke: #000000; stroke-width: 0.8"/>
      </g>
     </g>
     <g id="text_12">
      <!-- 2 -->
      <g transform="translate(51.4375 129.086507) scale(0.1 -0.1)">
       <use xlink:href="#DejaVuSans-32"/>
      </g>
     </g>
    </g>
    <g id="ytick_4">
     <g id="line2d_12">
      <g>
       <use xlink:href="#maf3d3070bb" x="64.8" y="78.723493" style="stroke: #000000; stroke-width: 0.8"/>
      </g>
     </g>
     <g id="text_13">
      <!-- 4 -->
      <g transform="translate(51.4375 82.522712) scale(0.1 -0.1)">
       <use xlink:href="#DejaVuSans-34"/>
      </g>
     </g>
    </g>
    <g id="ytick_5">
     <g id="line2d_13">
      <g>
       <use xlink:href="#maf3d3070bb" x="64.8" y="32.159698" style="stroke: #000000; stroke-width: 0.8"/>
      </g>
     </g>
     <g id="text_14">
      <!-- 6 -->
      <g transform="translate(51.4375 35.958917) scale(0.1 -0.1)">
       <use xlink:href="#DejaVuSans-36"/>
      </g>
     </g>
    </g>
    <g id="text_15">
     <!-- SLD ($10^{-6}/{\AA}^2$) -->
     <g transform="translate(35.938281 182.1) rotate(-90) scale(0.15 -0.15)">
      <defs>
       <path id="DejaVuSans-53" d="M 3425 4513 
L 3425 3897 
Q 3066 4069 2747 4153 
Q 2428 4238 2131 4238 
Q 1616 4238 1336 4038 
Q 1056 3838 1056 3469 
Q 1056 3159 1242 3001 
Q 1428 2844 1947 2747 
L 2328 2669 
Q 3034 2534 3370 2195 
Q 3706 1856 3706 1288 
Q 3706 609 3251 259 
Q 2797 -91 1919 -91 
Q 1588 -91 1214 -16 
Q 841 59 441 206 
L 441 856 
Q 825 641 1194 531 
Q 1563 422 1919 422 
Q 2459 422 2753 634 
Q 3047 847 3047 1241 
Q 3047 1584 2836 1778 
Q 2625 1972 2144 2069 
L 1759 2144 
Q 1053 2284 737 2584 
Q 422 2884 422 3419 
Q 422 4038 858 4394 
Q 1294 4750 2059 4750 
Q 2388 4750 2728 4690 
Q 3069 4631 3425 4513 
z
" transform="scale(0.015625)"/>
       <path id="DejaVuSans-4c" d="M 628 4666 
L 1259 4666 
L 1259 531 
L 3531 531 
L 3531 0 
L 628 0 
L 628 4666 
z
" transform="scale(0.015625)"/>
       <path id="DejaVuSans-44" d="M 1259 4147 
L 1259 519 
L 2022 519 
Q 2988 519 3436 956 
Q 3884 1394 3884 2338 
Q 3884 3275 3436 3711 
Q 2988 4147 2022 4147 
L 1259 4147 
z
M 628 4666 
L 1925 4666 
Q 3281 4666 3915 4102 
Q 4550 3538 4550 2338 
Q 4550 1131 3912 565 
Q 3275 0 1925 0 
L 628 0 
L 628 4666 
z
" transform="scale(0.015625)"/>
       <path id="DejaVuSans-2f" d="M 1625 4666 
L 2156 4666 
L 531 -594 
L 0 -594 
L 1625 4666 
z
" transform="scale(0.015625)"/>
      </defs>
      <use xlink:href="#DejaVuSans-53" transform="translate(0 0.171875)"/>
      <use xlink:href="#DejaVuSans-4c" transform="translate(63.476562 0.171875)"/>
      <use xlink:href="#DejaVuSans-44" transform="translate(119.189453 0.171875)"/>
      <use xlink:href="#DejaVuSans-20" transform="translate(196.191406 0.171875)"/>
      <use xlink:href="#DejaVuSans-28" transform="translate(227.978516 0.171875)"/>
      <use xlink:href="#DejaVuSans-31" transform="translate(266.992188 0.171875)"/>
      <use xlink:href="#DejaVuSans-30" transform="translate(330.615234 0.171875)"/>
      <use xlink:href="#DejaVuSans-2212" transform="translate(395.195312 38.453125) scale(0.7)"/>
      <use xlink:href="#DejaVuSans-36" transform="translate(453.847656 38.453125) scale(0.7)"/>
      <use xlink:href="#DejaVuSans-2f" transform="translate(501.118164 0.171875)"/>
      <use xlink:href="#DejaVuSans-Oblique-c5" transform="translate(534.80957 0.171875)"/>
      <use xlink:href="#DejaVuSans-32" transform="translate(613.023607 38.453125) scale(0.7)"/>
      <use xlink:href="#DejaVuSans-29" transform="translate(660.294115 0.171875)"/>
     </g>
    </g>
   </g>
   <g id="line2d_14">
    <path d="M 394.690909 32.966779 
L 388.343802 33.144777 
L 385.170248 33.410049 
L 381.996694 33.918123 
L 378.82314 34.795863 
L 377.236364 35.412531 
L 375.649587 36.163694 
L 374.06281 37.055246 
L 370.889256 39.248277 
L 367.715702 41.889096 
L 359.781818 48.864632 
L 356.608264 51.110004 
L 355.021488 52.027895 
L 353.434711 52.799092 
L 351.847934 53.418851 
L 350.261157 53.876776 
L 348.67438 54.146733 
L 347.087603 54.175216 
L 345.500826 53.873391 
L 343.91405 53.120739 
L 342.327273 51.787633 
L 340.740496 49.77796 
L 339.153719 47.081075 
L 337.566942 43.810597 
L 332.806612 33.264976 
L 331.219835 30.489231 
L 329.633058 28.369819 
L 328.046281 26.892259 
L 326.459504 25.95162 
L 324.872727 25.404818 
L 323.28595 25.114593 
L 320.112397 24.911632 
L 312.178512 24.872817 
L 112.244628 24.943785 
L 110.657851 25.217232 
L 109.071074 26.247106 
L 107.484298 29.399352 
L 105.897521 37.243088 
L 104.310744 53.11461 
L 102.723967 79.223201 
L 101.13719 114.14501 
L 99.550413 152.127147 
L 97.963636 185.716814 
L 96.37686 209.871549 
L 94.790083 223.995115 
L 93.203306 230.708578 
L 91.616529 233.303617 
L 90.029752 234.119072 
L 88.442975 234.327273 
L 86.856198 234.317932 
L 85.269421 229.125256 
L 82.095868 129.730876 
L 80.509091 123.725029 
L 80.509091 123.725029 
" clip-path="url(#pa0b14d1046)" style="fill: none; stroke: #1f77b4; stroke-linecap: square"/>
   </g>
   <g id="patch_3">
    <path d="M 64.8 244.8 
L 64.8 14.4 
" style="fill: none; stroke: #000000; stroke-width: 0.8; stroke-linejoin: miter; stroke-linecap: square"/>
   </g>
   <g id="patch_4">
    <path d="M 410.4 244.8 
L 410.4 14.4 
" style="fill: none; stroke: #000000; stroke-width: 0.8; stroke-linejoin: miter; stroke-linecap: square"/>
   </g>
   <g id="patch_5">
    <path d="M 64.8 244.8 
L 410.4 244.8 
" style="fill: none; stroke: #000000; stroke-width: 0.8; stroke-linejoin: miter; stroke-linecap: square"/>
   </g>
   <g id="patch_6">
    <path d="M 64.8 14.4 
L 410.4 14.4 
" style="fill: none; stroke: #000000; stroke-width: 0.8; stroke-linejoin: miter; stroke-linecap: square"/>
   </g>
  </g>
 </g>
 <defs>
  <clipPath id="pa0b14d1046">
   <rect x="64.8" y="14.4" width="345.6" height="230.4"/>
  </clipPath>
 </defs>
</svg>
